<?xml version="1.0" encoding="utf-8"?>
<!-- Generator: Adobe Illustrator 26.0.1, SVG Export Plug-In . SVG Version: 6.00 Build 0)  -->
<svg version="1.1" id="圖層_1" xmlns="http://www.w3.org/2000/svg" xmlns:xlink="http://www.w3.org/1999/xlink" x="0px" y="0px"
	 viewBox="0 0 400 270" style="enable-background:new 0 0 400 270;" xml:space="preserve">
<style type="text/css">
	.st0{fill:#777777;}
</style>
<g>
	<path class="st0" d="M380,40H20C8.95,40,0,31.05,0,20l0,0C0,8.95,8.95,0,20,0h360c11.05,0,20,8.95,20,20l0,0
		C400,31.05,391.05,40,380,40z"/>
</g>
<g>
	<path class="st0" d="M380,155H20c-11.05,0-20-8.95-20-20l0,0c0-11.05,8.95-20,20-20h360c11.05,0,20,8.95,20,20l0,0
		C400,146.05,391.05,155,380,155z"/>
</g>
<g>
	<path class="st0" d="M380,270H20c-11.05,0-20-8.95-20-20l0,0c0-11.05,8.95-20,20-20h360c11.05,0,20,8.95,20,20l0,0
		C400,261.05,391.05,270,380,270z"/>
</g>
</svg>
