<?xml version="1.0" encoding="utf-8"?>
<!-- Generator: Adobe Illustrator 26.0.1, SVG Export Plug-In . SVG Version: 6.00 Build 0)  -->
<svg version="1.1" id="圖層_1" xmlns="http://www.w3.org/2000/svg" xmlns:xlink="http://www.w3.org/1999/xlink" x="0px" y="0px"
	 viewBox="0 0 35 33.5" style="enable-background:new 0 0 35 33.5;" xml:space="preserve">
<style type="text/css">
	.st0{fill:#F4BB1F;}
</style>
<g>
	<path class="st0" d="M0,12.84c0.08-0.17,0.16-0.35,0.25-0.51c0.38-0.69,1.02-0.92,1.76-0.98c3.14-0.27,6.28-0.56,9.42-0.83
		c0.28-0.02,0.41-0.13,0.52-0.38c1.27-2.99,2.55-5.98,3.83-8.96c0.52-1.2,1.94-1.54,2.92-0.72c0.27,0.22,0.44,0.52,0.57,0.84
		c1.25,2.94,2.51,5.87,3.76,8.81c0.12,0.3,0.29,0.4,0.6,0.42c2.22,0.19,4.44,0.4,6.66,0.6c1.01,0.09,2.02,0.18,3.02,0.28
		c0.81,0.08,1.35,0.54,1.59,1.3c0.24,0.75,0.03,1.43-0.56,1.95c-2.06,1.81-4.12,3.62-6.19,5.42c-0.41,0.36-0.82,0.73-1.23,1.08
		c-0.15,0.12-0.19,0.23-0.14,0.43c0.73,3.16,1.44,6.33,2.16,9.5c0.19,0.86-0.05,1.62-0.69,2.06c-0.72,0.49-1.44,0.46-2.18,0.02
		c-2.75-1.65-5.51-3.29-8.26-4.94c-0.24-0.15-0.41-0.13-0.64,0.01c-2.75,1.65-5.51,3.28-8.26,4.94c-1.25,0.76-2.56,0.09-2.87-1.01
		c-0.1-0.35-0.09-0.69-0.01-1.04c0.72-3.13,1.43-6.27,2.15-9.4c0.07-0.29,0.01-0.47-0.22-0.66c-2.39-2.08-4.76-4.17-7.15-6.24
		C0.43,14.47,0.17,14.07,0,13.59C0,13.34,0,13.09,0,12.84z"/>
</g>
</svg>
